<svg width="28" height="28" viewBox="0 0 28 28" fill="none" xmlns="http://www.w3.org/2000/svg">
<path d="M25.0833 6.99967H5.25C3.913 6.99967 2.65883 6.33817 1.89933 5.25084C2.639 4.19267 3.86517 3.49967 5.25 3.49967H27.4167C27.7387 3.49967 28 3.23834 28 2.91634C28 2.59434 27.7387 2.33301 27.4167 2.33301H5.25C2.35083 2.33301 0 4.68384 0 7.58301V20.4163C0 23.3155 2.35083 25.6663 5.25 25.6663H25.0833C26.6945 25.6663 28 24.3608 28 22.7497V9.91634C28 8.30517 26.6945 6.99967 25.0833 6.99967ZM26.8333 22.7497C26.8333 23.7145 26.0482 24.4997 25.0833 24.4997H5.25C2.99833 24.4997 1.16667 22.668 1.16667 20.4163V7.58301C1.16667 7.17701 1.22617 6.78501 1.337 6.41517C2.324 7.51417 3.745 8.16634 5.25 8.16634H25.0833C26.0482 8.16634 26.8333 8.95151 26.8333 9.91634V22.7497ZM24.5 16.333C24.5 16.977 23.9773 17.4997 23.3333 17.4997C22.6893 17.4997 22.1667 16.977 22.1667 16.333C22.1667 15.689 22.6893 15.1663 23.3333 15.1663C23.9773 15.1663 24.5 15.689 24.5 16.333Z" fill="white"/>
</svg>
