<svg width="60" height="60" viewBox="0 0 60 60" fill="none" xmlns="http://www.w3.org/2000/svg">
<path d="M11.9222 46.3589H7.45753C5.49165 46.3589 3.89282 44.7601 3.89282 42.7942V35.9895C3.89282 34.0236 5.49165 32.4248 7.45753 32.4248H11.9258C12.3952 32.4248 12.7728 32.8025 12.7728 33.2719V45.5083C12.7693 45.9777 12.3916 46.3589 11.9222 46.3589ZM7.45753 34.1189C6.42694 34.1189 5.58694 34.9589 5.58694 35.9895V42.7942C5.58694 43.8248 6.42694 44.6648 7.45753 44.6648H11.0787V34.1189H7.45753Z" fill="#FFEE02"/>
<path d="M52.5423 46.3589H48.0741C47.6047 46.3589 47.2271 45.9813 47.2271 45.5119V33.2719C47.2271 32.8025 47.6047 32.4248 48.0741 32.4248H52.5423C54.5082 32.4248 56.107 34.0236 56.107 35.9895V42.7942C56.107 44.7601 54.5082 46.3589 52.5423 46.3589ZM48.9247 44.6648H52.5459C53.5765 44.6648 54.4165 43.8248 54.4165 42.7942V35.9895C54.4165 34.9589 53.5765 34.1189 52.5459 34.1189H48.9247V44.6648Z" fill="#FFEE02"/>
<path d="M45.5576 54.9813H32.0612C31.5918 54.9813 31.2141 54.6036 31.2141 54.1342C31.2141 53.6648 31.5918 53.2871 32.0612 53.2871H45.5541C48.4553 53.2871 50.82 50.926 50.82 48.0213V45.5083C50.82 45.0389 51.1976 44.6613 51.6671 44.6613C52.1365 44.6613 52.5141 45.0389 52.5141 45.5083V48.0213C52.5141 51.8577 49.3941 54.9813 45.5576 54.9813Z" fill="#FFEE02"/>
<path d="M30.5504 57.1059H28.094C26.7952 57.1059 25.7363 56.0471 25.7363 54.7482V53.52C25.7363 52.2212 26.7952 51.1624 28.094 51.1624H30.554C31.8528 51.1624 32.9116 52.2212 32.9116 53.52V54.7482C32.9081 56.0471 31.8528 57.1059 30.5504 57.1059ZM28.094 52.8565C27.7269 52.8565 27.4304 53.1529 27.4304 53.52V54.7482C27.4304 55.1153 27.7269 55.4118 28.094 55.4118H30.554C30.921 55.4118 31.2175 55.1153 31.2175 54.7482V53.52C31.2175 53.1529 30.921 52.8565 30.554 52.8565H28.094Z" fill="#FFEE02"/>
<path d="M53.3646 30.0459H49.9693C49.4999 30.0459 49.1222 29.6683 49.1222 29.1989V27.1059C49.1222 21.9989 47.1316 17.1953 43.521 13.5848C39.9351 9.99887 35.1669 8.01181 30.0987 7.98358C30.0669 7.98358 30.0316 7.98358 29.9999 7.98358C24.9563 7.98358 20.1916 9.96358 16.574 13.5636C12.8999 17.22 10.874 22.0695 10.874 27.2153V29.2024C10.874 29.6718 10.4963 30.0495 10.0269 30.0495H6.63514C6.16573 30.0495 5.78809 29.6718 5.78809 29.2024V27.1059C5.78809 23.8377 6.42691 20.6683 7.69044 17.6789C8.91162 14.7953 10.6551 12.2048 12.8787 9.98475C15.1022 7.76122 17.6893 6.01769 20.5728 4.79652C23.5622 3.53299 26.7316 2.89417 29.9999 2.89417C33.2681 2.89417 36.4375 3.53299 39.4269 4.79652C42.3104 6.01769 44.901 7.76122 47.121 9.98475C49.3446 12.2083 51.0881 14.7989 52.3093 17.6789C53.5728 20.6648 54.2116 23.8377 54.2116 27.1059V29.1989C54.2116 29.6683 53.834 30.0459 53.3646 30.0459ZM50.8163 28.3518H52.5175V27.1059C52.5175 24.0671 51.921 21.1165 50.7493 18.3389C49.6163 15.6565 47.9928 13.2495 45.9246 11.1812C43.8563 9.11299 41.4493 7.48946 38.7669 6.35652C35.9893 5.18475 33.0387 4.58828 29.9999 4.58828C26.961 4.58828 24.0104 5.18475 21.2328 6.35652C18.5504 7.48946 16.1434 9.11299 14.0751 11.1812C12.0069 13.2495 10.3869 15.66 9.25044 18.3424C8.07867 21.1165 7.4822 24.0671 7.4822 27.1059V28.3518H9.18338V27.2118C9.18338 24.3848 9.74456 21.6353 10.8493 19.0412C11.9151 16.5353 13.4434 14.2871 15.381 12.3565C17.3046 10.4436 19.5387 8.94358 22.0163 7.89887C24.5893 6.81534 27.3104 6.27181 30.1093 6.28593C35.6257 6.31417 40.8175 8.47769 44.721 12.3812C48.6528 16.313 50.8199 21.54 50.8199 27.1024L50.8163 28.3518Z" fill="#FFEE02"/>
<path d="M8.3329 34.1189C7.86349 34.1189 7.48584 33.7412 7.48584 33.2718V29.1989C7.48584 28.7295 7.86349 28.3518 8.3329 28.3518C8.80231 28.3518 9.17996 28.7295 9.17996 29.1989V33.2718C9.17996 33.7412 8.79878 34.1189 8.3329 34.1189Z" fill="#FFEE02"/>
<path d="M51.6669 34.1189C51.1975 34.1189 50.8198 33.7412 50.8198 33.2718V29.1989C50.8198 28.7295 51.1975 28.3518 51.6669 28.3518C52.1363 28.3518 52.5139 28.7295 52.5139 29.1989V33.2718C52.5139 33.7412 52.1363 34.1189 51.6669 34.1189Z" fill="#FFEE02"/>
<path d="M30.0668 22.2954C28.7327 22.2954 27.6492 21.2118 27.6492 19.8777C27.6492 18.5436 28.7327 17.4601 30.0668 17.4601C31.4009 17.4601 32.4845 18.5436 32.4845 19.8777C32.4845 21.2118 31.4009 22.2954 30.0668 22.2954ZM30.0668 19.1542C29.668 19.1542 29.3433 19.4789 29.3433 19.8777C29.3433 20.2766 29.668 20.6013 30.0668 20.6013C30.4656 20.6013 30.7903 20.2766 30.7903 19.8777C30.7903 19.4789 30.4656 19.1542 30.0668 19.1542Z" fill="#FFEE02"/>
<path d="M24.815 28.9659C24.695 28.9659 24.5715 28.9412 24.4586 28.8848L20.0468 26.8306C19.6233 26.633 19.4397 26.1283 19.6374 25.7048C19.835 25.2812 20.3397 25.0977 20.7633 25.2953L24.5009 27.0353L28.5103 20.7459C28.7609 20.3506 29.2868 20.2342 29.6786 20.4883C30.0739 20.7389 30.1903 21.2648 29.9362 21.6565L25.528 28.5742C25.3691 28.8248 25.0974 28.9659 24.815 28.9659Z" fill="#FFEE02"/>
<path d="M38.7211 34.2284H21.4164C21.0422 34.2284 20.714 33.9848 20.6046 33.6284L18.6317 27.1484C18.494 26.7001 18.7481 26.2272 19.1964 26.0895C19.6446 25.9519 20.1175 26.206 20.2552 26.6543L22.0481 32.5343H38.0964L39.8893 26.6543C40.027 26.206 40.4999 25.9554 40.9481 26.0895C41.3964 26.2272 41.647 26.7001 41.5128 27.1484L39.5293 33.6284C39.4199 33.9848 39.0917 34.2284 38.7211 34.2284Z" fill="#FFEE02"/>
<path d="M35.3187 28.9659C35.0363 28.9659 34.7646 28.8248 34.6022 28.5742L30.194 21.6565C29.9434 21.2612 30.0599 20.7389 30.4516 20.4883C30.8469 20.2377 31.3693 20.3542 31.6199 20.7459L35.6328 27.0353L39.3704 25.2918C39.794 25.0942 40.2987 25.2777 40.4963 25.7012C40.694 26.1248 40.5105 26.6295 40.0869 26.8271L35.6787 28.8812C35.5622 28.9377 35.4387 28.9659 35.3187 28.9659Z" fill="#FFEE02"/>
<path d="M39.7304 37.3377H20.4068C19.0833 37.3377 18.0068 36.2612 18.0068 34.9377C18.0068 33.6142 19.0833 32.5377 20.4068 32.5377H39.7304C41.0539 32.5377 42.1304 33.6142 42.1304 34.9377C42.1304 36.2612 41.0539 37.3377 39.7304 37.3377ZM20.4068 34.2283C20.0186 34.2283 19.701 34.546 19.701 34.9342C19.701 35.3224 20.0186 35.6401 20.4068 35.6401H39.7304C40.1186 35.6401 40.4362 35.3224 40.4362 34.9342C40.4362 34.546 40.1186 34.2283 39.7304 34.2283H20.4068Z" fill="#FFEE02"/>
<path d="M41.1528 27.8154C39.8186 27.8154 38.7351 26.7319 38.7351 25.3977C38.7351 24.0636 39.8186 22.9801 41.1528 22.9801C42.4869 22.9801 43.5704 24.0636 43.5704 25.3977C43.5704 26.7319 42.4833 27.8154 41.1528 27.8154ZM41.1528 24.6778C40.7539 24.6778 40.4292 25.0025 40.4292 25.4013C40.4292 25.8001 40.7539 26.1248 41.1528 26.1248C41.5516 26.1248 41.8763 25.8001 41.8763 25.4013C41.8763 25.0025 41.5516 24.6778 41.1528 24.6778Z" fill="#FFEE02"/>
<path d="M18.9845 27.8154C17.6504 27.8154 16.5669 26.7319 16.5669 25.3977C16.5669 24.0636 17.6504 22.9801 18.9845 22.9801C20.3187 22.9801 21.4022 24.0636 21.4022 25.3977C21.4022 26.7319 20.3151 27.8154 18.9845 27.8154ZM18.9845 24.6778C18.5857 24.6778 18.261 25.0025 18.261 25.4013C18.261 25.8001 18.5857 26.1248 18.9845 26.1248C19.3834 26.1248 19.7081 25.8001 19.7081 25.4013C19.7081 25.0025 19.3834 24.6778 18.9845 24.6778Z" fill="#FFEE02"/>
</svg>
